<?xml version="1.0" encoding="UTF-8" standalone="no"?>
<svg
   xmlns:dc="http://purl.org/dc/elements/1.1/"
   xmlns:cc="http://creativecommons.org/ns#"
   xmlns:rdf="http://www.w3.org/1999/02/22-rdf-syntax-ns#"
   xmlns:svg="http://www.w3.org/2000/svg"
   xmlns="http://www.w3.org/2000/svg"
   xmlns:sodipodi="http://sodipodi.sourceforge.net/DTD/sodipodi-0.dtd"
   xmlns:inkscape="http://www.inkscape.org/namespaces/inkscape"
   version="1.0"
   viewBox="0 0 295.20001 294.60303"
   id="svg4"
   sodipodi:docname="Untitled.svg"
   inkscape:version="1.0.1 (3bc2e813f5, 2020-09-07)">
  <metadata
     id="metadata10">
    <rdf:RDF>
      <cc:Work
         rdf:about="">
        <dc:format>image/svg+xml</dc:format>
        <dc:type
           rdf:resource="http://purl.org/dc/dcmitype/StillImage" />
      </cc:Work>
    </rdf:RDF>
  </metadata>
  <defs
     id="defs8" />
  <sodipodi:namedview
     pagecolor="#ffffff"
     bordercolor="#666666"
     borderopacity="1"
     objecttolerance="10"
     gridtolerance="10"
     guidetolerance="10"
     inkscape:pageopacity="0"
     inkscape:pageshadow="2"
     inkscape:window-width="1600"
     inkscape:window-height="837"
     id="namedview6"
     showgrid="false"
     inkscape:zoom="1.34"
     inkscape:cx="148.1"
     inkscape:cy="147.7009"
     inkscape:window-x="-8"
     inkscape:window-y="-8"
     inkscape:window-maximized="1"
     inkscape:current-layer="svg4" />
  <path
     d="M 73.7,73.400902 0,147.1009 l 9.8,9.8 c 10.6,10.8 137.1,137.1 137.8,137.7 0.2,0.2 14.6,-13.8 31.9,-31 l 31.6,-31.3 v -84.6 l 42.1,-0.2 42,-0.3 -73.5,-73.499998 C 181.2,33.300902 147.9,0.1009016 147.8,9.0160353e-4 147.6,-0.1990984 114.3,32.900902 73.7,73.400902 Z m 110.5,47.799998 25,25 -31,0.3 -31.1,0.2 -0.2,31.1 -0.3,31 -30.8,-30.7 -30.8,-30.7 5.8,-6 31.3,-31.3 25.4,-25.399998 5.9,5.7 c 3.2,3.2 17.1,16.999998 30.8,30.799998 z"
     id="path2" />
</svg>
